<svg width="20" height="20" viewBox="0 0 20 20" fill="none" xmlns="http://www.w3.org/2000/svg">
<path d="M19.4555 8.15425C19.5785 8.81325 19.6455 9.50225 19.6455 10.2213C19.6455 15.8453 15.8815 19.8442 10.1965 19.8442C8.9037 19.8446 7.62344 19.5903 6.42894 19.0957C5.23443 18.6012 4.14908 17.8761 3.2349 16.9619C2.32072 16.0477 1.59563 14.9624 1.10107 13.7679C0.606499 12.5733 0.352145 11.2931 0.35254 10.0003C0.352145 8.70741 0.606499 7.42716 1.10107 6.23265C1.59563 5.03814 2.32072 3.95279 3.2349 3.03861C4.14908 2.12443 5.23443 1.39935 6.42894 0.904778C7.62344 0.41021 8.9037 0.155856 10.1965 0.15625C12.8545 0.15625 15.0755 1.13425 16.7795 2.72225L14.0045 5.49725V5.49025C12.9715 4.50625 11.6605 4.00125 10.1965 4.00125C6.94854 4.00125 4.30854 6.74525 4.30854 9.99425C4.30854 13.2423 6.94854 15.9923 10.1965 15.9923C13.1435 15.9923 15.1495 14.3073 15.5615 11.9933H10.1965V8.15425H19.4565H19.4555Z" fill="#F24E1E"/>
</svg>
